<?xml version="1.0" encoding="utf-8"?>
<!-- Generator: Adobe Illustrator 16.0.0, SVG Export Plug-In . SVG Version: 6.00 Build 0)  -->
<!DOCTYPE svg PUBLIC "-//W3C//DTD SVG 1.1//EN" "http://www.w3.org/Graphics/SVG/1.1/DTD/svg11.dtd">
<svg version="1.1" id="Layer_1" xmlns="http://www.w3.org/2000/svg" xmlns:xlink="http://www.w3.org/1999/xlink" x="0px" y="0px"
	 viewBox="0 0 254.281 30.615"
	 xml:space="preserve">
<g>
	<polygon fill="#808080" points="71.707,10.989 72.272,8.511 88.946,8.511 90.768,0 66.295,0 59.862,30.031 59.734,30.597 
		67.588,30.597 69.958,19.371 85.994,19.371 87.761,10.989 	"/>
	<path fill="#808080" d="M182.939,7.49c0-2.077-0.619-3.862-1.858-5.284c-1.33-1.458-3.043-2.205-5.103-2.205h-20.228l-6.506,30.561
		h20.428c2.479,0,4.793-1.003,6.853-2.971c1.949-1.841,3.207-4.046,3.754-6.542l2.404-11.335
		C182.867,8.966,182.939,8.2,182.939,7.49 M172.535,20.865c-0.055,0.348-0.219,0.62-0.475,0.856
		c-0.256,0.219-0.511,0.328-0.748,0.328h-12.392l2.843-13.559h12.629c0.201,0,0.348,0.073,0.475,0.256
		c0.146,0.2,0.182,0.474,0.127,0.783L172.535,20.865L172.535,20.865z"/>
	<polygon fill="#808080" points="194.984,0 187.223,0 180.807,30.031 180.68,30.597 188.443,30.597 194.875,0.565 	"/>
	<path fill="#808080" d="M237.371,0c-2.369,0-4.609,0.947-6.688,2.807c-2.041,1.858-3.371,4.118-3.937,6.742l-2.406,11.335
		c-0.127,0.766-0.2,1.513-0.2,2.224c0,2.132,0.639,3.937,1.914,5.339c1.274,1.421,2.971,2.15,5.012,2.15h6.615
		c2.495,0,3.953-0.383,4.92-1.478l-0.312,1.478h7.765l4.172-19.607h-12.08l-1.769,8.383h2.915c0.527,0,1.075-0.036,1.622-0.092
		c-0.272,0.603-0.711,1.186-1.294,1.731c-0.784,0.729-1.566,1.093-2.296,1.093h-8.656c-0.219,0-0.364-0.072-0.474-0.255
		c-0.146-0.2-0.184-0.474-0.129-0.783l2.442-11.315c0.054-0.365,0.218-0.639,0.474-0.875c0.256-0.237,0.511-0.348,0.748-0.348
		h16.729l1.822-8.51H237.37L237.371,0L237.371,0z"/>
	<path fill="#808080" d="M146.512,30.597h-8.055l4.281-20.1c0.037-0.257,0.037-0.512-0.018-0.747
		c-0.055-0.257-0.164-0.456-0.311-0.656c-0.146-0.184-0.311-0.347-0.51-0.438c-0.201-0.108-0.42-0.164-0.676-0.164h-11.062
		l-4.683,22.123h-8L123.949,0h19.734c2.588,0,4.574,0.966,5.959,2.88c1.403,1.932,1.842,4.228,1.275,6.905L146.512,30.597z"/>
	<path fill="#808080" d="M92.354,0h8.036l-4.282,20.101c-0.037,0.255-0.037,0.51,0.018,0.765c0.055,0.237,0.164,0.456,0.31,0.639
		s0.31,0.347,0.528,0.438c0.201,0.109,0.419,0.164,0.674,0.164h11.061l4.702-22.104h8l-6.487,30.597H95.16
		c-2.587,0-4.574-0.947-5.959-2.879c-1.421-1.932-1.84-4.229-1.275-6.907L92.354,0z"/>
	<path fill="#808080" d="M220.023,30.597h-8.037l4.283-20.1c0.055-0.257,0.035-0.512-0.019-0.747
		c-0.056-0.257-0.164-0.456-0.312-0.656c-0.146-0.184-0.31-0.347-0.527-0.438c-0.2-0.108-0.419-0.164-0.676-0.164h-11.061
		l-4.701,22.123h-8l6.486-30.597h19.736c2.588,0,4.574,0.966,5.959,2.879c1.421,1.932,1.84,4.229,1.275,6.907L220.023,30.597z"/>
	<polygon fill="#808080" points="35.844,0.019 28.063,0.019 25.694,11.007 12.774,11.007 15.143,0.019 7.38,0.019 0.966,30.05 
		0.838,30.615 8.601,30.615 11.025,19.39 23.908,19.39 21.54,30.615 29.302,30.615 35.717,0.584 	"/>
	<polygon fill="#808080" points="32.911,30.05 32.783,30.615 40.546,30.615 46.979,0.584 47.088,0.019 39.325,0.019 	"/>
</g>
</svg>
